<svg id="ART" xmlns="http://www.w3.org/2000/svg" viewBox="0 0 1000 700"><defs><style>.cls-1{fill:#103c68;}.cls-2{fill:#e0cb26;}.cls-3{fill:#a39634;}.cls-4{fill:#fff;}</style></defs><title>Primary Logo on white</title><path class="cls-1" d="M106.25,605.62a23,23,0,0,1-1.28,7.8,17.33,17.33,0,0,1-3.8,6.2,17.65,17.65,0,0,1-6.29,4.1,26.4,26.4,0,0,1-17.43,0,17.65,17.65,0,0,1-6.29-4.1,17.19,17.19,0,0,1-3.8-6.2,23,23,0,0,1-1.28-7.8V576.36h10.5v28.86a11.88,11.88,0,0,0,.7,4.1,9.77,9.77,0,0,0,2,3.27,9.16,9.16,0,0,0,3.06,2.15,9.67,9.67,0,0,0,3.86.77,9.47,9.47,0,0,0,3.84-.77,9.24,9.24,0,0,0,3-2.15,9.91,9.91,0,0,0,2-3.27,11.65,11.65,0,0,0,.71-4.1V576.36h10.5Z"/><path class="cls-1" d="M113.16,618.2a6.4,6.4,0,0,1,.47-2.42,5.89,5.89,0,0,1,1.31-2,6.39,6.39,0,0,1,6.83-1.31,6.32,6.32,0,0,1,2,1.31,6.07,6.07,0,0,1,1.32,2,6.6,6.6,0,0,1,0,4.84,6.07,6.07,0,0,1-1.32,2,6,6,0,0,1-2,1.31,6.36,6.36,0,0,1-2.42.47,6.45,6.45,0,0,1-2.43-.47,6.05,6.05,0,0,1-2-1.31,5.89,5.89,0,0,1-1.31-2A6.36,6.36,0,0,1,113.16,618.2Z"/><path class="cls-1" d="M169.34,588a7.58,7.58,0,0,0-3.48-2.39,12.47,12.47,0,0,0-4.12-.77,10.82,10.82,0,0,0-2.36.27,9,9,0,0,0-2.29.84,4.88,4.88,0,0,0-1.75,1.52,4.2,4.2,0,0,0,.94,5.58,15.12,15.12,0,0,0,4.07,2q2.46.81,5.28,1.61a21.74,21.74,0,0,1,5.29,2.3,12.47,12.47,0,0,1,4.06,4,12.07,12.07,0,0,1,1.62,6.66,15.28,15.28,0,0,1-1.48,6.93,13.87,13.87,0,0,1-4,4.91,16.7,16.7,0,0,1-5.85,2.89,26.67,26.67,0,0,1-15.64-.47,21.43,21.43,0,0,1-7.4-4.57l7.47-8.21a10.74,10.74,0,0,0,4.07,3.33,11.46,11.46,0,0,0,7.67.88,8.17,8.17,0,0,0,2.35-.92,5,5,0,0,0,1.69-1.54,3.89,3.89,0,0,0,.63-2.22,4.05,4.05,0,0,0-1.65-3.4,14.64,14.64,0,0,0-4.13-2.11c-1.67-.59-3.46-1.17-5.38-1.76a24.37,24.37,0,0,1-5.39-2.35,12.88,12.88,0,0,1-4.14-3.91,11.12,11.12,0,0,1-1.65-6.38,14.3,14.3,0,0,1,1.52-6.73,14.82,14.82,0,0,1,4-4.84,17.48,17.48,0,0,1,5.83-2.93,23.77,23.77,0,0,1,6.79-1,27.06,27.06,0,0,1,7.8,1.14,18.21,18.21,0,0,1,6.8,3.84Z"/><path class="cls-1" d="M184.51,618.2a6.4,6.4,0,0,1,.47-2.42,5.77,5.77,0,0,1,1.32-2,6.27,6.27,0,0,1,2-1.31,6.49,6.49,0,0,1,4.85,0,6.55,6.55,0,0,1,2,1.31,6.21,6.21,0,0,1,1.31,2,6.6,6.6,0,0,1,0,4.84,5.9,5.9,0,0,1-3.3,3.3,6.49,6.49,0,0,1-4.85,0,6,6,0,0,1-2-1.31,5.77,5.77,0,0,1-1.32-2A6.36,6.36,0,0,1,184.51,618.2Z"/><path class="cls-1" d="M239.13,576.36h15.74a45.11,45.11,0,0,1,10.88,1.27,24.8,24.8,0,0,1,9,4.14,20.08,20.08,0,0,1,6.08,7.44,24.75,24.75,0,0,1,2.26,11.09,22.65,22.65,0,0,1-2.19,10.2,21.91,21.91,0,0,1-5.89,7.4,26,26,0,0,1-8.54,4.54A33.25,33.25,0,0,1,256.29,624H239.13Zm10.5,37.93h5.45a28.94,28.94,0,0,0,6.76-.74,14.35,14.35,0,0,0,5.41-2.45,11.63,11.63,0,0,0,3.61-4.51,15.83,15.83,0,0,0,1.31-6.82,13.27,13.27,0,0,0-1.31-6.09,12.41,12.41,0,0,0-3.53-4.28,15.84,15.84,0,0,0-5.22-2.52,23.13,23.13,0,0,0-6.29-.84h-6.19Z"/><path class="cls-1" d="M300.16,576.36h10.49V624H300.16Z"/><path class="cls-1" d="M373.42,620.62a37.38,37.38,0,0,1-9.69,3.5,49,49,0,0,1-10.29,1.08,29.44,29.44,0,0,1-10.29-1.75,23.53,23.53,0,0,1-8.14-5,22.75,22.75,0,0,1-5.36-7.91,29.05,29.05,0,0,1,0-20.72A22.75,22.75,0,0,1,335,581.9a23.53,23.53,0,0,1,8.14-5,29.44,29.44,0,0,1,10.29-1.75A38.06,38.06,0,0,1,364,576.52a20.6,20.6,0,0,1,8.44,4.74l-7.4,8.08a14.6,14.6,0,0,0-4.84-3.37,17.35,17.35,0,0,0-6.73-1.14,15.58,15.58,0,0,0-6.08,1.14,13.77,13.77,0,0,0-4.68,3.2,14,14,0,0,0-3,4.88,18.64,18.64,0,0,0,0,12.28,14,14,0,0,0,3,4.84,13.63,13.63,0,0,0,4.68,3.2,15.58,15.58,0,0,0,6.08,1.14,20.25,20.25,0,0,0,5.92-.77,23.11,23.11,0,0,0,4-1.58v-7.75h-8.54v-9.69h18.63Z"/><path class="cls-1" d="M392.59,576.36h10.5V624h-10.5Z"/><path class="cls-1" d="M432,585.64H418.37v-9.28H456v9.28H442.45V624H432Z"/><path class="cls-1" d="M480.94,576.36h8.67L510.33,624H498.49l-4.1-10.08h-18.5l-4,10.08H460.34Zm4,13.85L479.18,605h11.65Z"/><path class="cls-1" d="M525.6,576.36h10.5v37.93h19.44V624H525.6Z"/><path class="cls-1" d="M625,588a7.6,7.6,0,0,0-3.47-2.39,12.49,12.49,0,0,0-4.14-.77,10.73,10.73,0,0,0-2.35.27,9.11,9.11,0,0,0-2.29.84,5,5,0,0,0-1.75,1.52,4.17,4.17,0,0,0,.94,5.58,15.2,15.2,0,0,0,4.08,2q2.44.81,5.28,1.61a21.84,21.84,0,0,1,5.28,2.3,12.5,12.5,0,0,1,4.07,4,12.15,12.15,0,0,1,1.62,6.66,15.28,15.28,0,0,1-1.49,6.93,14,14,0,0,1-4,4.91,16.78,16.78,0,0,1-5.85,2.89,26.7,26.7,0,0,1-15.65-.47,21.21,21.21,0,0,1-7.39-4.57l7.46-8.21a10.89,10.89,0,0,0,4.07,3.33,11.46,11.46,0,0,0,7.67.88,8.35,8.35,0,0,0,2.36-.92,5,5,0,0,0,1.68-1.54,3.82,3.82,0,0,0,.64-2.22,4.08,4.08,0,0,0-1.65-3.4A14.85,14.85,0,0,0,616,605c-1.66-.59-3.45-1.17-5.38-1.76a24.09,24.09,0,0,1-5.38-2.35,12.88,12.88,0,0,1-4.14-3.91,11.12,11.12,0,0,1-1.65-6.38,14.3,14.3,0,0,1,1.51-6.73,14.48,14.48,0,0,1,4-4.84,17.34,17.34,0,0,1,5.82-2.93,23.88,23.88,0,0,1,6.79-1,27.23,27.23,0,0,1,7.81,1.14,18.21,18.21,0,0,1,6.8,3.84Z"/><path class="cls-1" d="M650.54,576.36H682.9V586H661v8.88h20.66v9.69H661v9.68h23.08V624H650.54Z"/><path class="cls-1" d="M702.62,576.36H721a31.9,31.9,0,0,1,6.9.7,16.31,16.31,0,0,1,5.72,2.35,11.78,11.78,0,0,1,3.91,4.44,15.15,15.15,0,0,1,1.44,7,14,14,0,0,1-2.62,8.57,11.78,11.78,0,0,1-7.68,4.48L740.82,624H728.24l-10-19h-5.18v19H702.62Zm10.49,19.71h6.19c.94,0,1.93,0,3-.11a9.43,9.43,0,0,0,2.86-.6,5,5,0,0,0,2.11-1.58,4.77,4.77,0,0,0,.84-3,5.11,5.11,0,0,0-.74-2.9,5,5,0,0,0-1.88-1.64,8.63,8.63,0,0,0-2.62-.78,22.33,22.33,0,0,0-2.9-.2h-6.86Z"/><path class="cls-1" d="M751.59,576.36h12l11.78,31.22h.13l12-31.22h11.24L779,624h-8.41Z"/><path class="cls-1" d="M813.62,576.36h10.5V624h-10.5Z"/><path class="cls-1" d="M874.92,588.73a10.44,10.44,0,0,0-3.81-2.89,12.52,12.52,0,0,0-5.21-1,13,13,0,0,0-9.85,4.34,14.78,14.78,0,0,0-2.9,4.88,18.64,18.64,0,0,0,0,12.28,15.29,15.29,0,0,0,2.85,4.84,13.14,13.14,0,0,0,4.28,3.2,12.4,12.4,0,0,0,5.28,1.14,11.82,11.82,0,0,0,5.72-1.35,11.29,11.29,0,0,0,4.1-3.77l8.75,6.53a18.19,18.19,0,0,1-7.67,6.26,23.82,23.82,0,0,1-9.56,2,29.48,29.48,0,0,1-10.29-1.75,23.48,23.48,0,0,1-8.13-5,22.62,22.62,0,0,1-5.36-7.91,29.05,29.05,0,0,1,0-20.72,22.62,22.62,0,0,1,5.36-7.91,23.48,23.48,0,0,1,8.13-5,29.48,29.48,0,0,1,10.29-1.75,26,26,0,0,1,4.21.37,22.68,22.68,0,0,1,4.3,1.18,19.24,19.24,0,0,1,4.08,2.15,16,16,0,0,1,3.49,3.3Z"/><path class="cls-1" d="M900.35,576.36h32.36V586H910.84v8.88H931.5v9.69H910.84v9.68h23.08V624H900.35Z"/><path class="cls-2" d="M356.88,334.08v-39H199.49c22.73,38,69.94,38.76,69.7,38.76C264,333.85,300.85,334,356.88,334.08Z"/><path class="cls-2" d="M356.88,231.67h-228C141.8,261.89,177.06,280,193.2,280H356.88Z"/><path class="cls-2" d="M356.88,143.22H54.08a4.33,4.33,0,0,0-4,5.27c7.35,35.19,52.09,68.08,73.23,68.08H356.88Z"/><path class="cls-2" d="M643.12,334.08v-39H800.51c-22.73,38-69.94,38.76-69.7,38.76C736,333.85,699.15,334,643.12,334.08Z"/><path class="cls-2" d="M643.12,231.67h228C858.2,261.89,822.94,280,806.8,280H643.12Z"/><path class="cls-2" d="M643.12,143.22h302.8a4.33,4.33,0,0,1,4,5.27c-7.35,35.19-52.09,68.08-73.23,68.08H643.12Z"/><path class="cls-3" d="M204.72,149.33C208.78,276.62,339.42,378.79,500,378.79S791.35,276.5,795.27,149.11c.23-3.28-1.65-5.89-4.47-5.89H210.07C205.72,143.22,204.6,146.32,204.72,149.33Z"/><path class="cls-4" d="M630,74.8H370a13.71,13.71,0,0,0-13.67,13.67V342.16c0,5.88,1.41,7.55,3,10.07,11.46,18.09,69.56,91.95,101.41,121.57,4.92,4.57,27.05,28.94,39.3,28.94s34.38-24.37,39.3-28.94c31.85-29.62,90-103.48,101.41-121.57,1.59-2.52,3-4.19,3-10.07V88.47A13.71,13.71,0,0,0,630,74.8Z"/><path class="cls-1" d="M630,74.8H370a13.71,13.71,0,0,0-13.67,13.67V342.16c0,5.88,1.41,7.55,3,10.07,6.8,10.74,30,41.14,54.48,70.27V212h57.49V484.2c8.85,8.42,20.85,18.54,28.74,18.54s19.89-10.12,28.74-18.54V212h57.49V422.5c24.43-29.13,47.67-59.53,54.48-70.27,1.59-2.52,3-4.19,3-10.07V88.47A13.71,13.71,0,0,0,630,74.8ZM425.73,161.59,410,152.94l-15.78,8.65,3.36-17.67-13.1-12.33,17.84-2.27L410,113.05l7.67,16.27,17.85,2.27-13.11,12.33ZM519,151.29l5.12,27L500,165.07l-24.09,13.22,5.12-27-20-18.83L488.28,129,500,104.14,511.72,129,539,132.46Zm86.85,10.3L590,152.94l-15.77,8.65,3.36-17.67-13.11-12.33,17.85-2.27L590,113.05l7.68,16.27,17.84,2.27-13.1,12.33Z"/></svg>