<?xml version="1.0" standalone="no"?>
<!DOCTYPE svg PUBLIC "-//W3C//DTD SVG 20010904//EN"
 "http://www.w3.org/TR/2001/REC-SVG-20010904/DTD/svg10.dtd">
<svg version="1.0" xmlns="http://www.w3.org/2000/svg"
 width="1617.000000pt" height="1617.000000pt" viewBox="0 0 1617.000000 1617.000000"
 preserveAspectRatio="xMidYMid meet">
<metadata>
Created by potrace 1.11, written by Peter Selinger 2001-2013
</metadata>
<g transform="translate(0.000000,1617.000000) scale(0.100000,-0.100000)"
fill="#000000" stroke="none">
<path d="M5616 11643 c-26 -7 -87 -46 -108 -70 -10 -10 -25 -37 -34 -58 -16
-36 -18 -93 -20 -570 -1 -291 -2 -533 -3 -537 0 -5 -624 -8 -1386 -8 l-1385 0
0 -44 0 -43 -1317 0 -1317 0 -23 -27 c-31 -36 -29 -62 16 -256 28 -121 172
-407 243 -481 7 -8 26 -32 43 -54 46 -62 201 -215 290 -285 113 -89 231 -164
375 -238 l124 -65 949 0 948 0 40 -78 c21 -43 39 -82 39 -87 0 -5 -382 -8
-856 -8 -471 1 -858 -3 -861 -7 -6 -10 49 -116 101 -193 180 -268 464 -485
851 -650 l110 -47 652 -1 652 -1 80 -84 c45 -47 81 -86 81 -88 0 -1 -275 -4
-612 -5 l-611 -3 75 -100 c250 -330 580 -525 1013 -599 72 -13 190 -16 590
-17 l500 -1 65 -36 c36 -20 88 -49 115 -64 77 -43 413 -208 424 -208 5 0 26
-23 46 -52 21 -28 41 -56 46 -62 5 -6 73 -96 151 -201 155 -208 341 -449 418
-541 10 -12 21 -28 26 -36 5 -8 28 -37 51 -64 22 -27 97 -116 164 -199 137
-166 129 -157 230 -275 209 -246 445 -503 649 -709 184 -185 320 -312 445
-416 33 -28 65 -55 70 -61 19 -21 200 -151 234 -169 19 -9 61 -20 93 -22 51
-5 66 -2 120 25 85 42 300 215 494 397 113 106 380 376 480 485 139 153 334
376 442 505 69 83 128 152 131 155 11 9 352 438 477 600 112 145 357 475 434
583 28 39 48 55 105 80 104 46 379 187 467 240 l76 45 269 0 c784 1 777 0
1013 57 66 16 282 98 306 116 6 5 37 23 70 40 152 81 331 242 456 410 l70 94
-611 5 -611 5 80 85 81 85 652 1 652 1 65 28 c160 67 403 192 420 215 3 4 19
14 35 23 114 60 349 290 446 437 46 70 102 180 95 188 -3 3 -391 5 -861 5
-520 0 -855 4 -855 10 0 5 18 44 40 87 l41 77 947 0 947 0 120 62 c380 196
651 444 831 763 79 138 148 344 160 473 5 55 4 62 -20 84 l-25 24 -1313 1
-1313 1 -3 42 -3 43 -1387 2 -1387 3 0 535 c-1 533 -1 535 -23 581 -26 53 -51
78 -107 108 l-39 21 -2456 -1 c-1350 -1 -2464 -4 -2474 -6z"/>
</g>
</svg>
